<svg preserveAspectRatio="none" width="100%" height="100%" overflow="visible" style="display: block;" viewBox="0 0 15 14" fill="none" xmlns="http://www.w3.org/2000/svg">
<path id="Vector (Stroke)" d="M0 12.5002C0 8.75874 1.43987 6.32452 3.31787 4.84559C4.83795 3.64854 6.59769 3.11339 7.99967 2.96326V0.833542C7.99967 0.489692 8.21136 0.180807 8.5319 0.0563613C8.85235 -0.0679259 9.21628 0.0175594 9.44824 0.271205L14.7819 6.10454C15.0729 6.42288 15.0729 6.91087 14.7819 7.22921L9.44824 13.0625C9.21628 13.3162 8.85235 13.4017 8.5319 13.2774C8.21136 13.1529 7.99967 12.8441 7.99967 12.5002V10.4299C5.36849 10.5065 3.75326 10.9428 2.81006 11.4203C1.74616 11.959 1.66667 12.4623 1.66667 12.5002C1.66667 12.9604 1.29357 13.3335 0.833333 13.3335C0.373096 13.3335 0 12.9604 0 12.5002ZM9.66634 3.75021C9.66634 4.21045 9.29325 4.58354 8.83301 4.58354C7.64907 4.58362 5.84149 4.97963 4.34896 6.15499C3.3148 6.9694 2.39588 8.18497 1.95068 9.98963C1.98576 9.97102 2.02132 9.95169 2.05729 9.93348C3.41832 9.24446 5.56369 8.75024 8.83301 8.75021C9.29325 8.75021 9.66634 9.12331 9.66634 9.58354V10.3542L13.0371 6.66688L9.66634 2.97872V3.75021Z" fill="var(--fill-0, #696F8C)"/>
</svg>
