<svg preserveAspectRatio="none" width="100%" height="100%" overflow="visible" style="display: block;" viewBox="0 0 12 12" fill="none" xmlns="http://www.w3.org/2000/svg">
<g id="Group">
<path id="Vector" d="M1.33333 3.86732C1.33333 3.29598 1.33333 2.90798 1.35867 2.60798C1.382 2.31598 1.42533 2.16598 1.47867 2.06198L0.290667 1.45665C0.126 1.77998 0.06 2.12465 0.0293333 2.49932C0 2.86598 5.96046e-08 3.31798 5.96046e-08 3.86732H1.33333ZM1.33333 5.33398V3.86732H5.96046e-08V5.33398H1.33333ZM5.96046e-08 5.33398V8.66732H1.33333V5.33398H5.96046e-08ZM5.96046e-08 8.66732V10.61H1.33333V8.66732H5.96046e-08ZM5.96046e-08 10.61C5.96046e-08 11.4707 1.04133 11.902 1.65 11.2933L0.707333 10.3507C0.758613 10.2993 0.823958 10.2644 0.8951 10.2502C0.966242 10.2361 1.03999 10.2434 1.107 10.2711C1.17402 10.2989 1.23129 10.3459 1.27158 10.4062C1.31187 10.4665 1.33336 10.5374 1.33333 10.61H5.96046e-08ZM1.65 11.2933L3.61 9.33398L2.66667 8.39132L0.707333 10.3507L1.65 11.2933ZM8.13333 8.00065H3.60933V9.33398H8.13333V8.00065ZM9.93867 7.85532C9.83467 7.90865 9.68533 7.95198 9.39267 7.97532C9.09267 7.99998 8.70467 8.00065 8.13333 8.00065V9.33398C8.68267 9.33398 9.134 9.33398 9.50133 9.30465C9.876 9.27398 10.2207 9.20798 10.544 9.04332L9.93867 7.85532ZM10.5213 7.27265C10.3935 7.52352 10.1895 7.72749 9.93867 7.85532L10.544 9.04332C11.0457 8.78766 11.4537 8.37973 11.7093 7.87798L10.5213 7.27265ZM10.6667 5.46732C10.6667 6.03865 10.6667 6.42665 10.6413 6.72665C10.618 7.01865 10.5747 7.16865 10.5213 7.27265L11.7093 7.87798C11.874 7.55465 11.94 7.20998 11.9707 6.83532C12.0007 6.46865 12 6.01665 12 5.46732H10.6667ZM10.6667 3.86732V5.46732H12V3.86732H10.6667ZM10.5213 2.06198C10.5747 2.16598 10.618 2.31532 10.6413 2.60798C10.6667 2.90798 10.6667 3.29598 10.6667 3.86732H12C12 3.31798 12 2.86665 11.9707 2.49932C11.94 2.12465 11.874 1.77998 11.7093 1.45665L10.5213 2.06198ZM9.93867 1.47932C10.1895 1.60715 10.3935 1.81111 10.5213 2.06198L11.7093 1.45665C11.4537 0.954908 11.0457 0.546976 10.544 0.291318L9.93867 1.47932ZM8.13333 1.33398C8.70467 1.33398 9.09267 1.33398 9.39267 1.35932C9.68467 1.38265 9.83467 1.42598 9.93867 1.47932L10.544 0.291318C10.2207 0.126651 9.876 0.0606512 9.50133 0.0299846C9.13467 0.00065122 8.68267 0.000651121 8.13333 0.000651121V1.33398ZM3.86667 1.33398H8.13333V0.000651121H3.86667V1.33398ZM2.06133 1.47932C2.16533 1.42598 2.31467 1.38265 2.60733 1.35932C2.90733 1.33398 3.29533 1.33398 3.86667 1.33398V0.000651121C3.31733 0.000651121 2.866 0.00065122 2.49867 0.0299846C2.124 0.0606512 1.77933 0.126651 1.456 0.291318L2.06133 1.47932ZM1.47867 2.06198C1.6065 1.81111 1.81046 1.60715 2.06133 1.47932L1.456 0.291318C0.954257 0.546976 0.546325 0.954908 0.290667 1.45665L1.47867 2.06198ZM3.60933 9.33398V8.00065C3.25574 8.00073 2.91666 8.14125 2.66667 8.39132L3.60933 9.33398Z" fill="var(--fill-0, #696F8C)"/>
<path id="Vector (Stroke)" d="M6.66667 5.33398C7.03486 5.33398 7.33333 5.63246 7.33333 6.00065C7.33333 6.36884 7.03486 6.66732 6.66667 6.66732H3.33333C2.96514 6.66732 2.66667 6.36884 2.66667 6.00065C2.66667 5.63246 2.96514 5.33398 3.33333 5.33398H6.66667ZM8.66667 2.66732C9.03486 2.66732 9.33333 2.96579 9.33333 3.33398C9.33333 3.70217 9.03486 4.00065 8.66667 4.00065H3.33333C2.96514 4.00065 2.66667 3.70217 2.66667 3.33398C2.66667 2.96579 2.96514 2.66732 3.33333 2.66732H8.66667Z" fill="var(--fill-0, #696F8C)"/>
</g>
</svg>
