<svg preserveAspectRatio="none" width="100%" height="100%" overflow="visible" style="display: block;" viewBox="0 0 15 15" fill="none" xmlns="http://www.w3.org/2000/svg">
<g id="Group">
<path id="Vector" d="M1.66667 4.83268C1.66667 4.11852 1.66667 3.63352 1.69833 3.25852C1.7275 2.89352 1.78167 2.70602 1.84833 2.57602L0.363334 1.81935C0.1575 2.22352 0.075 2.65435 0.0366667 3.12268C4.47035e-08 3.58102 1.19209e-07 4.14602 1.19209e-07 4.83268H1.66667ZM1.66667 6.66602V4.83268H1.19209e-07V6.66602H1.66667ZM1.19209e-07 6.66602V10.8327H1.66667V6.66602H1.19209e-07ZM1.19209e-07 10.8327V13.261H1.66667V10.8327H1.19209e-07ZM1.19209e-07 13.261C1.19209e-07 14.3368 1.30167 14.876 2.0625 14.1152L0.884167 12.9368C0.948266 12.8727 1.02995 12.829 1.11888 12.8113C1.2078 12.7936 1.29998 12.8027 1.38375 12.8374C1.46752 12.8721 1.53911 12.9309 1.58947 13.0063C1.63983 13.0817 1.6667 13.1703 1.66667 13.261H1.19209e-07ZM2.0625 14.1152L4.5125 11.666L3.33333 10.4877L0.884167 12.9368L2.0625 14.1152ZM10.1667 9.99935H4.51167V11.666H10.1667V9.99935ZM12.4233 9.81768C12.2933 9.88435 12.1067 9.93852 11.7408 9.96768C11.3658 9.99852 10.8808 9.99935 10.1667 9.99935V11.666C10.8533 11.666 11.4175 11.666 11.8767 11.6293C12.345 11.591 12.7758 11.5085 13.18 11.3027L12.4233 9.81768ZM13.1517 9.08935C12.9919 9.40294 12.7369 9.6579 12.4233 9.81768L13.18 11.3027C13.8072 10.9831 14.3171 10.4732 14.6367 9.84602L13.1517 9.08935ZM13.3333 6.83268C13.3333 7.54685 13.3333 8.03185 13.3017 8.40685C13.2725 8.77185 13.2183 8.95935 13.1517 9.08935L14.6367 9.84602C14.8425 9.44185 14.925 9.01102 14.9633 8.54268C15.0008 8.08435 15 7.51935 15 6.83268H13.3333ZM13.3333 4.83268V6.83268H15V4.83268H13.3333ZM13.1517 2.57602C13.2183 2.70602 13.2725 2.89268 13.3017 3.25852C13.3333 3.63352 13.3333 4.11852 13.3333 4.83268H15C15 4.14602 15 3.58185 14.9633 3.12268C14.925 2.65435 14.8425 2.22352 14.6367 1.81935L13.1517 2.57602ZM12.4233 1.84768C12.7369 2.00747 12.9919 2.26243 13.1517 2.57602L14.6367 1.81935C14.3171 1.19217 13.8072 0.682255 13.18 0.362682L12.4233 1.84768ZM10.1667 1.66602C10.8808 1.66602 11.3658 1.66602 11.7408 1.69768C12.1058 1.72685 12.2933 1.78102 12.4233 1.84768L13.18 0.362682C12.7758 0.156849 12.345 0.0743492 11.8767 0.0360159C11.4183 -0.000650759 10.8533 -0.000650883 10.1667 -0.000650883V1.66602ZM4.83333 1.66602H10.1667V-0.000650883H4.83333V1.66602ZM2.57667 1.84768C2.70667 1.78102 2.89333 1.72685 3.25917 1.69768C3.63417 1.66602 4.11917 1.66602 4.83333 1.66602V-0.000650883C4.14667 -0.000650883 3.5825 -0.000650759 3.12333 0.0360159C2.655 0.0743492 2.22417 0.156849 1.82 0.362682L2.57667 1.84768ZM1.84833 2.57602C2.00812 2.26243 2.26308 2.00747 2.57667 1.84768L1.82 0.362682C1.19282 0.682255 0.682907 1.19217 0.363334 1.81935L1.84833 2.57602ZM4.51167 11.666V9.99935C4.06968 9.99944 3.64582 10.1751 3.33333 10.4877L4.51167 11.666Z" fill="var(--fill-0, #696F8C)"/>
<path id="Vector (Stroke)" d="M8.33333 6.66602C8.79357 6.66602 9.16667 7.03911 9.16667 7.49935C9.16667 7.95959 8.79357 8.33268 8.33333 8.33268H4.16667C3.70643 8.33268 3.33333 7.95959 3.33333 7.49935C3.33333 7.03911 3.70643 6.66602 4.16667 6.66602H8.33333ZM10.8333 3.33268C11.2936 3.33268 11.6667 3.70578 11.6667 4.16602C11.6667 4.62625 11.2936 4.99935 10.8333 4.99935H4.16667C3.70643 4.99935 3.33333 4.62625 3.33333 4.16602C3.33333 3.70578 3.70643 3.33268 4.16667 3.33268H10.8333Z" fill="var(--fill-0, #696F8C)"/>
</g>
</svg>
