<svg preserveAspectRatio="none" width="100%" height="100%" overflow="visible" style="display: block;" viewBox="0 0 16 17" fill="none" xmlns="http://www.w3.org/2000/svg">
<path id="Vector" d="M14.1662 1L8.98525 6.92108M8.98525 6.92108L5.38898 1.84397C5.17009 1.53494 5.06064 1.38043 4.91919 1.26879C4.79393 1.16993 4.65091 1.09597 4.49784 1.0509C4.32498 1 4.13563 1 3.75693 1H2.34996C1.72469 1 1.41206 1 1.24351 1.12978C1.09674 1.24277 1.00766 1.41504 1.00028 1.60011C0.991818 1.81267 1.17252 2.06778 1.53393 2.57802L6.5675 9.68425M8.98525 6.92108L14.2984 14.422C14.6598 14.9322 14.8405 15.1873 14.8321 15.3999C14.8247 15.585 14.7356 15.7572 14.5888 15.8702C14.4203 16 14.1077 16 13.4824 16H12.0754C11.6968 16 11.5073 16 11.3345 15.9491C11.1814 15.904 11.0384 15.8301 10.9132 15.7312C10.7717 15.6196 10.6623 15.4651 10.4433 15.156L6.5675 9.68425M1.04118 16L6.5675 9.68425" stroke="var(--stroke-0, #696F8C)" stroke-width="1.66667" stroke-linecap="round" stroke-linejoin="round"/>
</svg>
