<svg width="24" height="24" viewBox="0 0 24 24" fill="none" xmlns="http://www.w3.org/2000/svg">
  <g transform="translate(4.165, 3.2)">
    <path fill-rule="evenodd" clip-rule="evenodd" d="M14.878 8.75C14.478 8.055 14.1 7.399 14.1 5.849C14.1 3.024 11.583 0 7.83496 0C4.087 0 1.57 3.024 1.57 5.85C1.57 7.4 1.191 8.057 0.791 8.751C0.402 9.427 0 10.125 0 11.497C0 11.51 -1.45053e-07 11.524 0.00199986 11.538C0.261 14.652 3.07 15.261 7.83496 15.261C12.599 15.261 15.409 14.652 15.67 11.497C15.67 10.124 15.268 9.425 14.878 8.75Z" fill="#696F8C"/>
  </g>
  <g transform="translate(9.183, 19.075)">
    <path fill-rule="evenodd" clip-rule="evenodd" d="M4.95213 0H0.750161C0.461161 0 0.199162 0.165999 0.0741617 0.424999C-0.0508383 0.685999 -0.0158381 0.994 0.164162 1.219C0.830132 2.049 1.80713 2.525 2.84713 2.525C3.89213 2.525 4.87213 2.049 5.53713 1.219C5.71813 0.994 5.75313 0.684999 5.62813 0.424999C5.50313 0.165999 5.24113 0 4.95213 0Z" fill="#696F8C"/>
  </g>
</svg>