<svg width="40" height="40" viewBox="0 0 40 40" fill="none" xmlns="http://www.w3.org/2000/svg">
<path fill-rule="evenodd" clip-rule="evenodd" d="M9.05584 7.04235C8.95223 7.67519 9.00051 9.65023 9.13731 10.3794C9.43003 11.9392 10.0508 13.4077 10.9108 14.5744C11.8573 15.8586 13.081 16.8588 15.4259 18.2651C17.4305 19.4672 18.4491 20.7085 18.9 22.4984C19.1839 23.6259 19.2792 24.903 19.2756 27.5343C19.2687 32.4555 18.7466 34.2916 16.5419 37.146C16.2226 37.5594 15.9614 37.9208 15.9614 37.949C15.9614 37.9774 16.4507 38.0005 17.0487 38.0005H18.136L18.5435 37.5711C19.8214 36.2245 20.6855 32.6412 20.6917 28.6621C20.6929 27.9674 20.7336 26.5991 20.7824 25.6214C20.9167 22.9299 21.1825 21.7953 21.9514 20.6331C22.571 19.6966 23.1209 19.2285 25.0812 17.9688C26.029 17.3599 27.0539 16.6622 27.359 16.4183C28.4845 15.5186 29.5053 14.2064 30.1111 12.8808C30.7882 11.3993 31.1251 9.32632 30.9574 7.67375C30.9065 7.17299 30.865 6.75092 30.865 6.73576C30.865 6.6736 29.6961 6.98235 28.9462 7.24256C25.4407 8.45871 22.6138 11.4963 21.3205 15.4366C20.9501 16.5654 20.6683 17.7727 20.3292 19.6847C20.1752 20.5531 20.037 21.2765 20.0221 21.2922C20.0072 21.308 19.9675 21.1456 19.9339 20.9313C19.6938 19.4004 19.1118 16.7995 18.7677 15.7192C17.8727 12.9089 16.3891 10.6575 14.3996 9.09029C12.8994 7.90851 11.4584 7.23714 9.47876 6.79783L9.1092 6.71582L9.05584 7.04235Z" fill="#90D446"/>
<path fill-rule="evenodd" clip-rule="evenodd" d="M19.051 2.81564C18.1991 3.63904 17.3334 4.80665 16.9501 5.64944C16.5932 6.43422 16.3792 7.47245 16.4351 8.14761C16.512 9.07404 16.863 9.82625 18.1294 11.7777C19.3804 13.7054 19.6505 14.2647 19.8767 15.3943C19.979 15.9058 20.0303 16.0404 20.05 15.8496C20.1744 14.6478 20.5407 13.8297 21.8455 11.8393C23.3466 9.54926 23.5985 8.90695 23.5255 7.55429C23.4713 6.54944 23.1409 5.62355 22.4604 4.56917C21.962 3.79684 20.2654 2 20.0346 2C19.9578 2 19.5152 2.36704 19.051 2.81564Z" fill="#E19DED"/>
</svg>
