<svg width="20" height="21" viewBox="0 0 20 21" fill="none" xmlns="http://www.w3.org/2000/svg">
<path d="M10.2293 16.3337C10.396 16.3198 10.5385 16.2537 10.6568 16.1353C10.7752 16.017 10.8341 15.8748 10.8335 15.7087C10.8335 15.5142 10.771 15.3581 10.646 15.2403C10.521 15.1225 10.3613 15.0703 10.1668 15.0837C9.59738 15.1253 8.99322 14.9692 8.35433 14.6153C7.71544 14.2614 7.31266 13.6189 7.146 12.6878C7.11822 12.535 7.04544 12.41 6.92766 12.3128C6.80988 12.2156 6.67433 12.167 6.521 12.167C6.32655 12.167 6.16683 12.24 6.04183 12.3862C5.91683 12.5323 5.87516 12.7023 5.91683 12.8962C6.15294 14.16 6.7085 15.0628 7.5835 15.6045C8.4585 16.1462 9.34044 16.3892 10.2293 16.3337ZM10.0002 18.8337C8.09738 18.8337 6.51072 18.1809 5.24016 16.8753C3.96961 15.5698 3.33405 13.9448 3.3335 12.0003C3.3335 10.6114 3.88572 9.10116 4.99016 7.46949C6.09461 5.83783 7.76461 4.07033 10.0002 2.16699C12.2363 4.06977 13.9066 5.83727 15.011 7.46949C16.1154 9.10171 16.6674 10.612 16.6668 12.0003C16.6668 13.9448 16.0316 15.5698 14.761 16.8753C13.4904 18.1809 11.9035 18.8337 10.0002 18.8337Z" fill="#4CBEFF"/>
</svg>
