<svg width="79" height="34" viewBox="0 0 79 34" fill="none" xmlns="http://www.w3.org/2000/svg">
<path d="M3.52 6.5H6.7C7.26 6.5 7.72 6.36667 8.08 6.1C8.44 5.83333 8.62 5.4 8.62 4.8C8.62 4.46667 8.56 4.19333 8.44 3.98C8.32 3.76667 8.16 3.6 7.96 3.48C7.76 3.36 7.52667 3.28 7.26 3.24C7.00667 3.18667 6.74 3.16 6.46 3.16H3.52V6.5ZM0.38 0.719999H7.1C7.78 0.719999 8.4 0.779999 8.96 0.899999C9.52 1.02 10 1.22 10.4 1.5C10.8 1.76667 11.1067 2.12667 11.32 2.58C11.5467 3.03333 11.66 3.59333 11.66 4.26C11.66 4.98 11.4933 5.58 11.16 6.06C10.84 6.54 10.36 6.93333 9.72 7.24C10.6 7.49333 11.2533 7.94 11.68 8.58C12.12 9.20667 12.34 9.96667 12.34 10.86C12.34 11.58 12.2 12.2067 11.92 12.74C11.64 13.26 11.26 13.6867 10.78 14.02C10.3133 14.3533 9.77333 14.6 9.16 14.76C8.56 14.92 7.94 15 7.3 15H0.38V0.719999ZM3.52 12.56H6.88C7.18667 12.56 7.48 12.5333 7.76 12.48C8.04 12.4133 8.28667 12.3133 8.5 12.18C8.71333 12.0333 8.88 11.84 9 11.6C9.13333 11.36 9.2 11.0533 9.2 10.68C9.2 9.94667 8.99333 9.42667 8.58 9.12C8.16667 8.8 7.62 8.64 6.94 8.64H3.52V12.56ZM14.242 0.719999H17.082V15H14.242V0.719999ZM21.8383 9.84C21.8383 10.2533 21.8783 10.66 21.9583 11.06C22.0383 11.4467 22.1716 11.8 22.3583 12.12C22.5583 12.4267 22.8183 12.6733 23.1383 12.86C23.4583 13.0467 23.8583 13.14 24.3383 13.14C24.8183 13.14 25.2183 13.0467 25.5383 12.86C25.8716 12.6733 26.1316 12.4267 26.3183 12.12C26.5183 11.8 26.6583 11.4467 26.7383 11.06C26.8183 10.66 26.8583 10.2533 26.8583 9.84C26.8583 9.42667 26.8183 9.02 26.7383 8.62C26.6583 8.22 26.5183 7.86667 26.3183 7.56C26.1316 7.25333 25.8716 7.00667 25.5383 6.82C25.2183 6.62 24.8183 6.52 24.3383 6.52C23.8583 6.52 23.4583 6.62 23.1383 6.82C22.8183 7.00667 22.5583 7.25333 22.3583 7.56C22.1716 7.86667 22.0383 8.22 21.9583 8.62C21.8783 9.02 21.8383 9.42667 21.8383 9.84ZM18.9983 9.84C18.9983 9.01333 19.1249 8.26667 19.3783 7.6C19.6316 6.92 19.9916 6.34667 20.4583 5.88C20.9249 5.4 21.4849 5.03333 22.1383 4.78C22.7916 4.51333 23.5249 4.38 24.3383 4.38C25.1516 4.38 25.8849 4.51333 26.5383 4.78C27.2049 5.03333 27.7716 5.4 28.2383 5.88C28.7049 6.34667 29.0649 6.92 29.3183 7.6C29.5716 8.26667 29.6983 9.01333 29.6983 9.84C29.6983 10.6667 29.5716 11.4133 29.3183 12.08C29.0649 12.7467 28.7049 13.32 28.2383 13.8C27.7716 14.2667 27.2049 14.6267 26.5383 14.88C25.8849 15.1333 25.1516 15.26 24.3383 15.26C23.5249 15.26 22.7916 15.1333 22.1383 14.88C21.4849 14.6267 20.9249 14.2667 20.4583 13.8C19.9916 13.32 19.6316 12.7467 19.3783 12.08C19.1249 11.4133 18.9983 10.6667 18.9983 9.84ZM34.0648 9.84C34.0648 10.2533 34.1048 10.66 34.1848 11.06C34.2648 11.4467 34.3982 11.8 34.5848 12.12C34.7848 12.4267 35.0448 12.6733 35.3648 12.86C35.6848 13.0467 36.0848 13.14 36.5648 13.14C37.0448 13.14 37.4448 13.0467 37.7648 12.86C38.0982 12.6733 38.3582 12.4267 38.5448 12.12C38.7448 11.8 38.8848 11.4467 38.9648 11.06C39.0448 10.66 39.0848 10.2533 39.0848 9.84C39.0848 9.42667 39.0448 9.02 38.9648 8.62C38.8848 8.22 38.7448 7.86667 38.5448 7.56C38.3582 7.25333 38.0982 7.00667 37.7648 6.82C37.4448 6.62 37.0448 6.52 36.5648 6.52C36.0848 6.52 35.6848 6.62 35.3648 6.82C35.0448 7.00667 34.7848 7.25333 34.5848 7.56C34.3982 7.86667 34.2648 8.22 34.1848 8.62C34.1048 9.02 34.0648 9.42667 34.0648 9.84ZM31.2248 9.84C31.2248 9.01333 31.3515 8.26667 31.6048 7.6C31.8582 6.92 32.2182 6.34667 32.6848 5.88C33.1515 5.4 33.7115 5.03333 34.3648 4.78C35.0182 4.51333 35.7515 4.38 36.5648 4.38C37.3782 4.38 38.1115 4.51333 38.7648 4.78C39.4315 5.03333 39.9982 5.4 40.4648 5.88C40.9315 6.34667 41.2915 6.92 41.5448 7.6C41.7982 8.26667 41.9248 9.01333 41.9248 9.84C41.9248 10.6667 41.7982 11.4133 41.5448 12.08C41.2915 12.7467 40.9315 13.32 40.4648 13.8C39.9982 14.2667 39.4315 14.6267 38.7648 14.88C38.1115 15.1333 37.3782 15.26 36.5648 15.26C35.7515 15.26 35.0182 15.1333 34.3648 14.88C33.7115 14.6267 33.1515 14.2667 32.6848 13.8C32.2182 13.32 31.8582 12.7467 31.6048 12.08C31.3515 11.4133 31.2248 10.6667 31.2248 9.84ZM43.8514 4.66H46.5314V6.06H46.5714C46.9447 5.52667 47.3914 5.11333 47.9114 4.82C48.4447 4.52667 49.0514 4.38 49.7314 4.38C50.3847 4.38 50.9781 4.50667 51.5114 4.76C52.0581 5.01333 52.4714 5.46 52.7514 6.1C53.0581 5.64667 53.4714 5.24667 53.9914 4.9C54.5247 4.55333 55.1514 4.38 55.8714 4.38C56.4181 4.38 56.9247 4.44667 57.3914 4.58C57.8581 4.71333 58.2581 4.92667 58.5914 5.22C58.9247 5.51333 59.1847 5.9 59.3714 6.38C59.5581 6.84667 59.6514 7.41333 59.6514 8.08V15H56.8114V9.14C56.8114 8.79333 56.7981 8.46667 56.7714 8.16C56.7447 7.85333 56.6714 7.58667 56.5514 7.36C56.4314 7.13333 56.2514 6.95333 56.0114 6.82C55.7847 6.68667 55.4714 6.62 55.0714 6.62C54.6714 6.62 54.3447 6.7 54.0914 6.86C53.8514 7.00667 53.6581 7.20667 53.5114 7.46C53.3781 7.7 53.2847 7.98 53.2314 8.3C53.1914 8.60667 53.1714 8.92 53.1714 9.24V15H50.3314V9.2C50.3314 8.89333 50.3247 8.59333 50.3114 8.3C50.2981 7.99333 50.2381 7.71333 50.1314 7.46C50.0381 7.20667 49.8714 7.00667 49.6314 6.86C49.4047 6.7 49.0647 6.62 48.6114 6.62C48.4781 6.62 48.2981 6.65333 48.0714 6.72C47.8581 6.77333 47.6447 6.88667 47.4314 7.06C47.2314 7.22 47.0581 7.46 46.9114 7.78C46.7647 8.08667 46.6914 8.49333 46.6914 9V15H43.8514V4.66ZM3.52 25.44H5.96C6.32 25.44 6.66667 25.4133 7 25.36C7.33333 25.3067 7.62667 25.2067 7.88 25.06C8.13333 24.9 8.33333 24.68 8.48 24.4C8.64 24.12 8.72 23.7533 8.72 23.3C8.72 22.8467 8.64 22.48 8.48 22.2C8.33333 21.92 8.13333 21.7067 7.88 21.56C7.62667 21.4 7.33333 21.2933 7 21.24C6.66667 21.1867 6.32 21.16 5.96 21.16H3.52V25.44ZM0.38 18.72H6.82C7.71333 18.72 8.47333 18.8533 9.1 19.12C9.72667 19.3733 10.2333 19.7133 10.62 20.14C11.02 20.5667 11.3067 21.0533 11.48 21.6C11.6667 22.1467 11.76 22.7133 11.76 23.3C11.76 23.8733 11.6667 24.44 11.48 25C11.3067 25.5467 11.02 26.0333 10.62 26.46C10.2333 26.8867 9.72667 27.2333 9.1 27.5C8.47333 27.7533 7.71333 27.88 6.82 27.88H3.52V33H0.38V18.72ZM13.4198 22.66H16.1198V24.58H16.1598C16.2932 24.26 16.4732 23.9667 16.6998 23.7C16.9265 23.42 17.1865 23.1867 17.4798 23C17.7732 22.8 18.0865 22.6467 18.4198 22.54C18.7532 22.4333 19.0998 22.38 19.4598 22.38C19.6465 22.38 19.8532 22.4133 20.0798 22.48V25.12C19.9465 25.0933 19.7865 25.0733 19.5998 25.06C19.4132 25.0333 19.2332 25.02 19.0598 25.02C18.5398 25.02 18.0998 25.1067 17.7398 25.28C17.3798 25.4533 17.0865 25.6933 16.8598 26C16.6465 26.2933 16.4932 26.64 16.3998 27.04C16.3065 27.44 16.2598 27.8733 16.2598 28.34V33H13.4198V22.66ZM23.3617 27.84C23.3617 28.2533 23.4017 28.66 23.4817 29.06C23.5617 29.4467 23.6951 29.8 23.8817 30.12C24.0817 30.4267 24.3417 30.6733 24.6617 30.86C24.9817 31.0467 25.3817 31.14 25.8617 31.14C26.3417 31.14 26.7417 31.0467 27.0617 30.86C27.3951 30.6733 27.6551 30.4267 27.8417 30.12C28.0417 29.8 28.1817 29.4467 28.2617 29.06C28.3417 28.66 28.3817 28.2533 28.3817 27.84C28.3817 27.4267 28.3417 27.02 28.2617 26.62C28.1817 26.22 28.0417 25.8667 27.8417 25.56C27.6551 25.2533 27.3951 25.0067 27.0617 24.82C26.7417 24.62 26.3417 24.52 25.8617 24.52C25.3817 24.52 24.9817 24.62 24.6617 24.82C24.3417 25.0067 24.0817 25.2533 23.8817 25.56C23.6951 25.8667 23.5617 26.22 23.4817 26.62C23.4017 27.02 23.3617 27.4267 23.3617 27.84ZM20.5217 27.84C20.5217 27.0133 20.6484 26.2667 20.9017 25.6C21.1551 24.92 21.5151 24.3467 21.9817 23.88C22.4484 23.4 23.0084 23.0333 23.6617 22.78C24.3151 22.5133 25.0484 22.38 25.8617 22.38C26.6751 22.38 27.4084 22.5133 28.0617 22.78C28.7284 23.0333 29.2951 23.4 29.7617 23.88C30.2284 24.3467 30.5884 24.92 30.8417 25.6C31.0951 26.2667 31.2217 27.0133 31.2217 27.84C31.2217 28.6667 31.0951 29.4133 30.8417 30.08C30.5884 30.7467 30.2284 31.32 29.7617 31.8C29.2951 32.2667 28.7284 32.6267 28.0617 32.88C27.4084 33.1333 26.6751 33.26 25.8617 33.26C25.0484 33.26 24.3151 33.1333 23.6617 32.88C23.0084 32.6267 22.4484 32.2667 21.9817 31.8C21.5151 31.32 21.1551 30.7467 20.9017 30.08C20.6484 29.4133 20.5217 28.6667 20.5217 27.84ZM36.6683 22.66H38.7483V24.56H36.6683V29.68C36.6683 30.16 36.7483 30.48 36.9083 30.64C37.0683 30.8 37.3883 30.88 37.8683 30.88C38.0283 30.88 38.1816 30.8733 38.3283 30.86C38.4749 30.8467 38.6149 30.8267 38.7483 30.8V33C38.5083 33.04 38.2416 33.0667 37.9483 33.08C37.6549 33.0933 37.3683 33.1 37.0883 33.1C36.6483 33.1 36.2283 33.0667 35.8283 33C35.4416 32.9467 35.0949 32.8333 34.7883 32.66C34.4949 32.4867 34.2616 32.24 34.0883 31.92C33.9149 31.6 33.8283 31.18 33.8283 30.66V24.56H32.1083V22.66H33.8283V19.56H36.6683V22.66ZM42.6195 27.84C42.6195 28.2533 42.6595 28.66 42.7395 29.06C42.8195 29.4467 42.9529 29.8 43.1395 30.12C43.3395 30.4267 43.5995 30.6733 43.9195 30.86C44.2395 31.0467 44.6395 31.14 45.1195 31.14C45.5995 31.14 45.9995 31.0467 46.3195 30.86C46.6529 30.6733 46.9129 30.4267 47.0995 30.12C47.2995 29.8 47.4395 29.4467 47.5195 29.06C47.5995 28.66 47.6395 28.2533 47.6395 27.84C47.6395 27.4267 47.5995 27.02 47.5195 26.62C47.4395 26.22 47.2995 25.8667 47.0995 25.56C46.9129 25.2533 46.6529 25.0067 46.3195 24.82C45.9995 24.62 45.5995 24.52 45.1195 24.52C44.6395 24.52 44.2395 24.62 43.9195 24.82C43.5995 25.0067 43.3395 25.2533 43.1395 25.56C42.9529 25.8667 42.8195 26.22 42.7395 26.62C42.6595 27.02 42.6195 27.4267 42.6195 27.84ZM39.7795 27.84C39.7795 27.0133 39.9062 26.2667 40.1595 25.6C40.4129 24.92 40.7729 24.3467 41.2395 23.88C41.7062 23.4 42.2662 23.0333 42.9195 22.78C43.5729 22.5133 44.3062 22.38 45.1195 22.38C45.9329 22.38 46.6662 22.5133 47.3195 22.78C47.9862 23.0333 48.5529 23.4 49.0195 23.88C49.4862 24.3467 49.8462 24.92 50.0995 25.6C50.3529 26.2667 50.4795 27.0133 50.4795 27.84C50.4795 28.6667 50.3529 29.4133 50.0995 30.08C49.8462 30.7467 49.4862 31.32 49.0195 31.8C48.5529 32.2667 47.9862 32.6267 47.3195 32.88C46.6662 33.1333 45.9329 33.26 45.1195 33.26C44.3062 33.26 43.5729 33.1333 42.9195 32.88C42.2662 32.6267 41.7062 32.2667 41.2395 31.8C40.7729 31.32 40.4129 30.7467 40.1595 30.08C39.9062 29.4133 39.7795 28.6667 39.7795 27.84ZM59.3661 26.3C59.1794 25.1133 58.4794 24.52 57.2661 24.52C56.8128 24.52 56.4328 24.6267 56.1261 24.84C55.8194 25.04 55.5661 25.3067 55.3661 25.64C55.1794 25.96 55.0461 26.32 54.9661 26.72C54.8861 27.1067 54.8461 27.4933 54.8461 27.88C54.8461 28.2533 54.8861 28.6333 54.9661 29.02C55.0461 29.4067 55.1728 29.76 55.3461 30.08C55.5328 30.3867 55.7794 30.64 56.0861 30.84C56.3928 31.04 56.7661 31.14 57.2061 31.14C57.8861 31.14 58.4061 30.9533 58.7661 30.58C59.1394 30.1933 59.3728 29.68 59.4661 29.04H62.2061C62.0194 30.4133 61.4861 31.46 60.6061 32.18C59.7261 32.9 58.5994 33.26 57.2261 33.26C56.4528 33.26 55.7394 33.1333 55.0861 32.88C54.4461 32.6133 53.8994 32.2467 53.4461 31.78C52.9928 31.3133 52.6394 30.76 52.3861 30.12C52.1328 29.4667 52.0061 28.7533 52.0061 27.98C52.0061 27.18 52.1194 26.44 52.3461 25.76C52.5861 25.0667 52.9328 24.4733 53.3861 23.98C53.8394 23.4733 54.3928 23.08 55.0461 22.8C55.6994 22.52 56.4461 22.38 57.2861 22.38C57.8994 22.38 58.4861 22.46 59.0461 22.62C59.6194 22.78 60.1261 23.0267 60.5661 23.36C61.0194 23.68 61.3861 24.0867 61.6661 24.58C61.9461 25.06 62.1061 25.6333 62.1461 26.3H59.3661ZM66.3305 27.84C66.3305 28.2533 66.3705 28.66 66.4505 29.06C66.5305 29.4467 66.6638 29.8 66.8505 30.12C67.0505 30.4267 67.3105 30.6733 67.6305 30.86C67.9505 31.0467 68.3505 31.14 68.8305 31.14C69.3105 31.14 69.7105 31.0467 70.0305 30.86C70.3638 30.6733 70.6238 30.4267 70.8105 30.12C71.0105 29.8 71.1505 29.4467 71.2305 29.06C71.3105 28.66 71.3505 28.2533 71.3505 27.84C71.3505 27.4267 71.3105 27.02 71.2305 26.62C71.1505 26.22 71.0105 25.8667 70.8105 25.56C70.6238 25.2533 70.3638 25.0067 70.0305 24.82C69.7105 24.62 69.3105 24.52 68.8305 24.52C68.3505 24.52 67.9505 24.62 67.6305 24.82C67.3105 25.0067 67.0505 25.2533 66.8505 25.56C66.6638 25.8667 66.5305 26.22 66.4505 26.62C66.3705 27.02 66.3305 27.4267 66.3305 27.84ZM63.4905 27.84C63.4905 27.0133 63.6171 26.2667 63.8705 25.6C64.1238 24.92 64.4838 24.3467 64.9505 23.88C65.4171 23.4 65.9771 23.0333 66.6305 22.78C67.2838 22.5133 68.0171 22.38 68.8305 22.38C69.6438 22.38 70.3771 22.5133 71.0305 22.78C71.6971 23.0333 72.2638 23.4 72.7305 23.88C73.1971 24.3467 73.5571 24.92 73.8105 25.6C74.0638 26.2667 74.1905 27.0133 74.1905 27.84C74.1905 28.6667 74.0638 29.4133 73.8105 30.08C73.5571 30.7467 73.1971 31.32 72.7305 31.8C72.2638 32.2667 71.6971 32.6267 71.0305 32.88C70.3771 33.1333 69.6438 33.26 68.8305 33.26C68.0171 33.26 67.2838 33.1333 66.6305 32.88C65.9771 32.6267 65.4171 32.2667 64.9505 31.8C64.4838 31.32 64.1238 30.7467 63.8705 30.08C63.6171 29.4133 63.4905 28.6667 63.4905 27.84ZM76.117 18.72H78.957V33H76.117V18.72Z" fill="#393F49"/>
</svg>
