<svg preserveAspectRatio="none" width="100%" height="100%" overflow="visible" style="display: block;" viewBox="0 0 433.95 617.089" fill="none" xmlns="http://www.w3.org/2000/svg">
<path id="photo_2025-04-14 12.02.24 1 (Traced)" d="M9.33496 2.10547C48.3154 10.7556 76.6699 23.9683 106.198 47.2295C145.35 78.0713 174.562 122.389 192.191 177.742C198.969 199.021 210.443 250.298 215.178 280.478C215.51 282.599 215.874 284.472 216.193 285.78C216.352 286.43 216.505 286.959 216.643 287.313C216.707 287.48 216.785 287.654 216.883 287.781C216.925 287.837 217.025 287.955 217.191 288.011C217.287 288.043 217.403 288.053 217.521 288.019C217.636 287.985 217.719 287.921 217.774 287.862L217.773 287.861C217.831 287.801 217.863 287.739 217.874 287.717C217.89 287.685 217.903 287.654 217.913 287.627C217.933 287.573 217.954 287.509 217.974 287.441C218.014 287.304 218.062 287.116 218.117 286.887C218.227 286.426 218.372 285.771 218.544 284.945C218.889 283.292 219.352 280.941 219.901 278.066C221 272.316 222.442 264.464 223.961 255.897C230.648 218.195 236.201 194.407 243.497 172.173C268.966 94.5799 324.623 34.7932 393.604 10.8623C400.985 8.30108 410.434 5.49863 418.037 3.49023C421.84 2.48586 425.173 1.68187 427.551 1.20605C428.743 0.96754 429.68 0.814521 430.312 0.757812C430.525 0.738622 430.69 0.732454 430.812 0.734375C430.816 0.78937 430.82 0.849371 430.825 0.913086C430.85 1.19016 430.886 1.57965 430.933 2.06836C431.025 3.04616 431.159 4.42463 431.324 6.10156C431.655 9.45549 432.111 14.0065 432.612 18.9453C435.911 51.4558 429.28 92.2573 415.962 121.397C404.045 147.474 383.957 173.294 361.818 190.991C355.825 195.783 335.629 209.532 316.932 221.545C278.256 246.397 267.332 255.678 255.049 274.243C239.807 297.284 234.558 319.778 231.908 372.888C231.007 390.972 230.243 415.831 230.132 430.168L230.119 432.89C230.058 472.1 225.769 509.353 218.353 540.111C210.931 570.889 200.394 595.093 187.884 608.275L179.994 616.589H158.761C152.868 616.589 147.514 616.475 143.637 616.292C141.697 616.2 140.134 616.092 139.061 615.973C138.597 615.921 138.237 615.867 137.98 615.815C138.126 615.565 138.346 615.221 138.633 614.789C139.209 613.923 140.046 612.73 141.082 611.297C143.154 608.431 146.012 604.615 149.159 600.541C170.925 572.36 184.412 549.173 192.463 520.864C200.51 492.569 203.118 459.19 203.186 410.645C203.258 358.741 201.379 333.495 195.762 311.19C186.828 275.725 166.63 251.142 127.009 227.382C80.7766 199.655 56.7041 179.965 38.0918 154.713C21.1784 131.766 8.96149 102.873 3.2002 72.1729C1.85893 65.0238 0.945856 51.7231 0.625977 38.6279C0.31598 25.9371 0.564842 13.5124 1.50195 7.12109L1.59473 6.52148L2.56152 0.602539L9.33496 2.10547Z" stroke="var(--stroke-0, #F6F6F6)"/>
</svg>
