<svg preserveAspectRatio="none" width="100%" height="100%" overflow="visible" style="display: block;" viewBox="0 0 140.253 274.814" fill="none" xmlns="http://www.w3.org/2000/svg">
<path id="photo_2025-04-14 12.02.24 1 (Traced)" d="M71.1748 0.5C71.3287 0.5 71.6339 0.585907 72.1211 0.84375C72.589 1.09141 73.1647 1.46477 73.8398 1.95703C75.189 2.94079 76.8935 4.37111 78.8535 6.14648C82.7715 9.69535 87.6796 14.5915 92.7568 19.9688C102.918 30.7309 113.715 43.3724 118.604 50.9482C131.991 71.6903 138.469 89.8706 139.532 109.585C140.25 122.878 139.371 132.64 134.642 144.703C129.9 156.797 121.284 171.216 106.476 193.806C80.7288 233.08 73.4473 249.303 70.9805 273.133C70.953 273.399 70.9216 273.625 70.8896 273.813C70.8765 273.78 70.8615 273.746 70.8477 273.71C70.3118 272.302 69.5616 269.16 68.5498 264.104C64.0697 241.726 58.6969 230.628 34.0137 192.594C9.03118 154.095 2.17695 139.354 0.672852 121.221C-0.422142 108.009 3.77279 87.6152 10.7881 72.1924C18.3165 55.639 35.3493 32.6578 52.1201 16.4482C56.6907 12.0308 61.1533 8.0176 64.6582 5.11133C66.4116 3.65738 67.919 2.48518 69.0771 1.67969C69.6568 1.27656 70.1402 0.971814 70.5176 0.769531C70.7065 0.668317 70.861 0.597221 70.9814 0.552734C71.041 0.530728 71.0878 0.516845 71.123 0.508789C71.1559 0.501292 71.1723 0.500105 71.1748 0.5Z" stroke="var(--stroke-0, #F6F6F6)"/>
</svg>
