<svg preserveAspectRatio="none" width="100%" height="100%" overflow="visible" style="display: block;" viewBox="0 0 32.2 42.4131" fill="none" xmlns="http://www.w3.org/2000/svg">
<g id="photo_2025-04-14 12.02.24 1 (Traced)" filter="url(#filter0_d_4014_20192)">
<path fill-rule="evenodd" clip-rule="evenodd" d="M4.06142 2.35918C3.94745 3.05531 4.00056 5.22785 4.15105 6.02997C4.47303 7.74577 5.15589 9.36103 6.10183 10.6444C7.14299 12.057 8.48906 13.1573 11.0685 14.7043C13.2735 16.0265 14.394 17.392 14.89 19.3609C15.2023 20.6011 15.3072 22.0059 15.3031 24.9003C15.2956 30.3137 14.7212 32.3333 12.2961 35.4732C11.9448 35.928 11.6575 36.3255 11.6575 36.3565C11.6575 36.3877 12.1958 36.4131 12.8536 36.4131H14.0497L14.4979 35.9408C15.9035 34.4596 16.854 30.518 16.8609 26.1409C16.8621 25.3767 16.907 23.8716 16.9606 22.7962C17.1083 19.8355 17.4008 18.5874 18.2465 17.309C18.9281 16.2788 19.533 15.7639 21.6893 14.3783C22.7319 13.7085 23.8593 12.941 24.1949 12.6727C25.4329 11.683 26.5559 10.2397 27.2222 8.78153C27.967 7.15187 28.3376 4.87155 28.1532 3.05372C28.0972 2.50289 28.0515 2.03861 28.0515 2.02193C28.0515 1.95355 26.7658 2.29318 25.9409 2.57941C22.0847 3.91718 18.9752 7.25856 17.5526 11.5928C17.1451 12.8345 16.8351 14.1626 16.4621 16.2657C16.2927 17.221 16.1407 18.0168 16.1243 18.034C16.1079 18.0514 16.0642 17.8727 16.0273 17.637C15.7632 15.9531 15.123 13.0921 14.7445 11.9037C13.76 8.81239 12.128 6.33585 9.93958 4.61191C8.28939 3.31196 6.70428 2.57346 4.52663 2.09022L4.12012 2L4.06142 2.35918Z" fill="var(--fill-0, white)"/>
<path fill-rule="evenodd" clip-rule="evenodd" d="M4.06142 2.35918C3.94745 3.05531 4.00056 5.22785 4.15105 6.02997C4.47303 7.74577 5.15589 9.36103 6.10183 10.6444C7.14299 12.057 8.48906 13.1573 11.0685 14.7043C13.2735 16.0265 14.394 17.392 14.89 19.3609C15.2023 20.6011 15.3072 22.0059 15.3031 24.9003C15.2956 30.3137 14.7212 32.3333 12.2961 35.4732C11.9448 35.928 11.6575 36.3255 11.6575 36.3565C11.6575 36.3877 12.1958 36.4131 12.8536 36.4131H14.0497L14.4979 35.9408C15.9035 34.4596 16.854 30.518 16.8609 26.1409C16.8621 25.3767 16.907 23.8716 16.9606 22.7962C17.1083 19.8355 17.4008 18.5874 18.2465 17.309C18.9281 16.2788 19.533 15.7639 21.6893 14.3783C22.7319 13.7085 23.8593 12.941 24.1949 12.6727C25.4329 11.683 26.5559 10.2397 27.2222 8.78153C27.967 7.15187 28.3376 4.87155 28.1532 3.05372C28.0972 2.50289 28.0515 2.03861 28.0515 2.02193C28.0515 1.95355 26.7658 2.29318 25.9409 2.57941C22.0847 3.91718 18.9752 7.25856 17.5526 11.5928C17.1451 12.8345 16.8351 14.1626 16.4621 16.2657C16.2927 17.221 16.1407 18.0168 16.1243 18.034C16.1079 18.0514 16.0642 17.8727 16.0273 17.637C15.7632 15.9531 15.123 13.0921 14.7445 11.9037C13.76 8.81239 12.128 6.33585 9.93958 4.61191C8.28939 3.31196 6.70428 2.57346 4.52663 2.09022L4.12012 2L4.06142 2.35918Z" fill="var(--fill-1, white)"/>
</g>
<defs>
<filter id="filter0_d_4014_20192" x="-9.17984e-10" y="0" width="32.2" height="42.4131" filterUnits="userSpaceOnUse" color-interpolation-filters="sRGB">
<feFlood flood-opacity="0" result="BackgroundImageFix"/>
<feColorMatrix in="SourceAlpha" type="matrix" values="0 0 0 0 0 0 0 0 0 0 0 0 0 0 0 0 0 0 127 0" result="hardAlpha"/>
<feOffset dy="2"/>
<feGaussianBlur stdDeviation="2"/>
<feComposite in2="hardAlpha" operator="out"/>
<feColorMatrix type="matrix" values="0 0 0 0 0 0 0 0 0 0 0 0 0 0 0 0 0 0 0.25 0"/>
<feBlend mode="normal" in2="BackgroundImageFix" result="effect1_dropShadow_4014_20192"/>
<feBlend mode="normal" in="SourceGraphic" in2="effect1_dropShadow_4014_20192" result="shape"/>
</filter>
</defs>
</svg>
