<svg width="55" height="78" viewBox="0 0 55 78" fill="none" xmlns="http://www.w3.org/2000/svg">
  <!-- Base Y-shape with stem (scaled down from 84.7x120.446) -->
  <g transform="scale(0.65)">
    <path fill-rule="evenodd" clip-rule="evenodd" d="M0.214969 1.25713C-0.183933 3.69357 0.00194441 11.2975 0.528661 14.1049C1.65562 20.1102 4.04561 25.7636 7.3564 30.2554C11.0005 35.1995 15.7117 39.0505 24.7398 44.4649C32.4574 49.0929 36.3791 53.872 38.1149 60.7631C39.2082 65.1038 39.5751 70.0208 39.561 80.1511C39.5346 99.0979 37.5242 106.167 29.0363 117.156C27.807 118.748 26.8013 120.139 26.8013 120.248C26.8013 120.357 28.6852 120.446 30.9875 120.446H35.1738L36.7426 118.793C41.6624 113.609 44.989 99.8128 45.013 84.4932C45.0175 81.8184 45.1745 76.5506 45.3621 72.7865C45.8792 62.4242 46.9028 58.056 49.8627 53.5816C52.2483 49.9759 54.3654 48.1737 61.9126 43.3241C65.5615 40.9797 69.5076 38.2935 70.682 37.3546C75.0153 33.8906 78.9456 28.8389 81.2778 23.7353C83.8846 18.0315 85.1816 10.0504 84.536 3.68801C84.3402 1.76012 84.1801 0.135129 84.1801 0.0767712C84.1801 -0.162566 79.6801 1.02613 76.793 2.02794C63.2966 6.71012 52.4132 18.405 47.4339 33.5749C46.0077 37.9208 44.923 42.569 43.6174 49.93C43.0244 53.2735 42.4925 56.0586 42.4351 56.1191C42.3777 56.1799 42.2248 55.5546 42.0957 54.7296C41.1711 48.8358 38.9305 38.8222 37.6057 34.6629C34.1599 23.8434 28.4481 15.1755 20.7885 9.1417C15.0129 4.59187 9.46498 2.00709 1.84322 0.315756L0.420431 0L0.214969 1.25713Z" fill="#5E5E5E"/>
  </g>

  <!-- Top center leaf (scaled down from 27.3752x53.6391 and positioned at center top) -->
  <g transform="translate(18.5, 0) scale(0.65)">
    <path fill-rule="evenodd" clip-rule="evenodd" d="M10.1052 3.14021C6.82537 6.3103 3.49259 10.8056 2.01689 14.0504C0.642544 17.0718 -0.181374 21.0689 0.0340545 23.6683C0.329882 27.2351 1.68155 30.1311 6.55703 37.6443C11.3734 45.0658 12.4134 47.2192 13.2841 51.5679C13.6782 53.5375 13.8754 54.0554 13.9513 53.321C14.4303 48.6941 15.8404 45.5442 20.8639 37.8812C26.6434 29.0647 27.613 26.5917 27.3319 21.384C27.1234 17.5154 25.8514 13.9507 23.2316 9.89132C21.3127 6.91784 14.7808 0 13.8922 0C13.5964 0 11.8922 1.4131 10.1052 3.14021Z" fill="#6E6E6E"/>
  </g>
</svg>
